<?xml version="1.0" encoding="UTF-8"?>
<!DOCTYPE svg PUBLIC "-//W3C//DTD SVG 1.1//EN" "http://www.w3.org/Graphics/SVG/1.1/DTD/svg11.dtd">
<svg xmlns="http://www.w3.org/2000/svg" version="1.1" width="512px" height="512px" style="shape-rendering:geometricPrecision; text-rendering:geometricPrecision; image-rendering:optimizeQuality; fill-rule:evenodd; clip-rule:evenodd" xmlns:xlink="http://www.w3.org/1999/xlink">
<g><path style="opacity:0.997" fill="#060606" d="M 424.5,270.5 C 424.762,269.022 424.429,267.689 423.5,266.5C 422.893,266.624 422.56,266.957 422.5,267.5C 420.295,272.937 417.795,278.27 415,283.5C 414.31,284.738 413.81,284.738 413.5,283.5C 413.664,280.813 413.497,278.146 413,275.5C 412.283,276.044 411.783,276.711 411.5,277.5C 409.893,282.048 407.726,286.381 405,290.5C 401.089,295.322 397.422,300.322 394,305.5C 391.641,314.271 388.974,322.938 386,331.5C 383.72,335.447 381.053,339.113 378,342.5C 377.546,348.663 375.713,354.329 372.5,359.5C 374.516,371.859 379.016,383.192 386,393.5C 386.667,396.833 387.333,400.167 388,403.5C 391.593,406.382 395.093,409.382 398.5,412.5C 399.776,413.614 399.776,414.614 398.5,415.5C 396.824,416.183 396.157,417.517 396.5,419.5C 395.504,419.586 394.671,419.252 394,418.5C 393.363,420.303 392.197,421.636 390.5,422.5C 384.173,418.351 380.007,412.685 378,405.5C 375.626,403.461 373.626,401.128 372,398.5C 368.033,391.187 364.033,383.853 360,376.5C 359.092,371.807 358.092,367.14 357,362.5C 354.126,361.468 352.626,359.468 352.5,356.5C 353.15,354.565 353.483,352.565 353.5,350.5C 353.667,342.348 354.667,334.015 356.5,325.5C 354.397,317.793 351.064,310.626 346.5,304C 336.001,299.604 326.668,301.271 318.5,309C 313.094,308.753 308.761,310.753 305.5,315C 302.888,327.054 298.221,338.221 291.5,348.5C 291.709,349.086 292.043,349.586 292.5,350C 291.347,352.616 290.347,355.282 289.5,358C 292.328,364.013 294.662,370.18 296.5,376.5C 302.415,379.915 306.748,384.748 309.5,391C 315.202,394.006 320.869,397.006 326.5,400C 327.718,401.438 328.385,403.105 328.5,405C 327.5,407.5 326.5,410 325.5,412.5C 324.575,413.641 323.741,413.641 323,412.5C 322.131,415.394 320.298,416.561 317.5,416C 314.613,410.779 310.28,407.446 304.5,406C 300.22,398.953 294.887,392.786 288.5,387.5C 282.491,379.476 276.991,371.143 272,362.5C 272.152,357.991 270.485,354.325 267,351.5C 266.775,344.273 269.108,337.939 274,332.5C 275.526,326.394 277.359,320.394 279.5,314.5C 280.043,314.44 280.376,314.107 280.5,313.5C 279.675,312.614 278.675,312.281 277.5,312.5C 276.194,312.879 274.861,313.212 273.5,313.5C 268.311,311.816 262.978,311.149 257.5,311.5C 256.508,311.672 255.842,311.338 255.5,310.5C 256.936,309.571 258.269,308.405 259.5,307C 252.863,307.441 246.196,307.441 239.5,307C 241.167,305.333 242.833,303.667 244.5,302C 241.823,301.751 239.49,300.751 237.5,299C 222.782,296.993 208.449,293.493 194.5,288.5C 194.44,287.957 194.107,287.624 193.5,287.5C 192.505,292.792 192.172,298.125 192.5,303.5C 193.152,306.706 192.985,310.04 192,313.5C 185.52,324.654 177.52,334.654 168,343.5C 162.5,351 157,358.5 151.5,366C 156.188,380.401 160.688,394.901 165,409.5C 171.817,413.723 173.317,419.39 169.5,426.5C 167.235,427.647 164.902,427.814 162.5,427C 156.736,422.461 153.736,416.795 153.5,410C 151.355,401.873 147.522,394.707 142,388.5C 137.727,381.288 134.561,373.622 132.5,365.5C 132.5,362.5 132.5,359.5 132.5,356.5C 130.821,356.715 129.821,356.048 129.5,354.5C 129.33,353.178 129.663,352.011 130.5,351C 129.241,350.077 127.908,349.243 126.5,348.5C 133.391,340.704 138.724,332.038 142.5,322.5C 143.404,321.791 143.737,320.791 143.5,319.5C 140.167,319.5 136.833,319.5 133.5,319.5C 123.441,324.928 113.108,330.094 102.5,335C 98.9164,336.073 95.2498,336.74 91.5,337C 86.3666,341.455 80.3666,343.788 73.5,344C 71.9984,344.583 70.6651,345.416 69.5,346.5C 70.1995,348.612 69.6995,350.612 68,352.5C 66.9624,357.967 66.129,363.467 65.5,369C 64.3509,382.101 64.3509,395.267 65.5,408.5C 69.0433,408.872 71.21,410.872 72,414.5C 72.9693,420.387 70.4693,424.053 64.5,425.5C 60.1565,422.988 56.6565,419.655 54,415.5C 51.423,403.353 48.5896,391.187 45.5,379C 45.8333,378.667 46.1667,378.333 46.5,378C 45.5844,375.43 44.9177,372.763 44.5,370C 45.6561,366.042 46.6561,362.042 47.5,358C 45.0717,348.218 44.905,338.385 47,328.5C 49.1667,325.667 51.3333,322.833 53.5,320C 73.0395,314.567 91.7062,306.9 109.5,297C 111,295.5 112.5,294 114,292.5C 115.73,280.232 117.063,267.899 118,255.5C 123.505,241.649 130.672,228.816 139.5,217C 135.317,217.787 131.484,219.62 128,222.5C 123.667,231.167 119.333,239.833 115,248.5C 112.197,257.242 109.197,265.908 106,274.5C 99.6236,284.087 93.1236,293.587 86.5,303C 63.6532,315.586 39.3198,319.752 13.5,315.5C 18.2043,311.786 22.871,308.119 27.5,304.5C 28.0431,304.44 28.3764,304.107 28.5,303.5C 25.9135,302.52 23.2469,302.187 20.5,302.5C 20.4142,301.504 20.7476,300.671 21.5,300C 26.1466,297.366 30.8133,294.699 35.5,292C 33.9984,291.417 32.6651,290.584 31.5,289.5C 36.7589,286.588 42.4256,284.421 48.5,283C 56.5167,279.319 63.0167,273.819 68,266.5C 77.5179,251.463 86.5179,236.13 95,220.5C 97.8333,217.667 100.667,214.833 103.5,212C 108.506,209.499 113.173,206.499 117.5,203C 120.833,201.667 124.167,200.333 127.5,199C 139.138,196.56 150.805,194.227 162.5,192C 167.49,188.833 172.824,186.333 178.5,184.5C 195.092,187.565 211.426,191.732 227.5,197C 237.342,203.757 247.675,209.757 258.5,215C 262.167,218 265.833,221 269.5,224C 274.514,223.944 279.514,223.444 284.5,222.5C 286.424,222.289 286.757,221.623 285.5,220.5C 283.833,219.5 282.5,218.167 281.5,216.5C 282.209,215.596 283.209,215.263 284.5,215.5C 289.486,216.444 294.486,216.944 299.5,217C 297.697,216.363 296.364,215.197 295.5,213.5C 309.145,212.9 322.645,214.233 336,217.5C 337.399,216.773 338.899,216.273 340.5,216C 330.059,206.679 331.725,203.679 345.5,207C 344,205.5 342.5,204 341,202.5C 340.383,201.551 340.549,200.718 341.5,200C 359.289,196.22 377.289,193.887 395.5,193C 396.416,192.626 397.25,192.126 398,191.5C 397.836,186.845 397.836,182.179 398,177.5C 400.78,169.939 404.113,162.606 408,155.5C 409.886,152.758 412.386,151.091 415.5,150.5C 415.889,158.836 416.389,167.169 417,175.5C 417.471,177.246 418.138,178.913 419,180.5C 428.026,172.139 437.026,163.805 446,155.5C 442.62,165.834 439.453,176.334 436.5,187C 437.167,187.667 437.833,188.333 438.5,189C 442.819,189.76 447.152,190.427 451.5,191C 454.987,193.817 458.487,196.65 462,199.5C 469.858,198.788 478.025,198.288 486.5,198C 489.55,197.321 492.55,196.488 495.5,195.5C 496.991,196.348 497.658,197.681 497.5,199.5C 495.748,203.35 494.248,207.35 493,211.5C 491.833,212.667 490.667,213.833 489.5,215C 474.79,221.047 463.124,230.714 454.5,244C 440.354,248.647 431.021,258.147 426.5,272.5C 424.133,273.466 423.466,272.8 424.5,270.5 Z"/></g>
<g><path style="opacity:0.702" fill="#5b5b5b" d="M 284.5,215.5 C 283.209,215.263 282.209,215.596 281.5,216.5C 279.668,215.86 279.335,214.86 280.5,213.5C 282.026,213.994 283.359,214.661 284.5,215.5 Z"/></g>
<g><path style="opacity:0.188" fill="#a4a4a4" d="M 285.5,220.5 C 286.757,221.623 286.424,222.289 284.5,222.5C 284.833,221.833 285.167,221.167 285.5,220.5 Z"/></g>
<g><path style="opacity:0.424" fill="#777777" d="M 422.5,267.5 C 422.56,266.957 422.893,266.624 423.5,266.5C 424.429,267.689 424.762,269.022 424.5,270.5C 423.833,269.5 423.167,268.5 422.5,267.5 Z"/></g>
<g><path style="opacity:0.22" fill="#a1a1a1" d="M 413.5,283.5 C 412.833,281.5 412.167,279.5 411.5,277.5C 411.783,276.711 412.283,276.044 413,275.5C 413.497,278.146 413.664,280.813 413.5,283.5 Z"/></g>
<g><path style="opacity:0.616" fill="#515151" d="M 194.5,288.5 C 193.833,293.5 193.167,298.5 192.5,303.5C 192.172,298.125 192.505,292.792 193.5,287.5C 194.107,287.624 194.44,287.957 194.5,288.5 Z"/></g>
<g><path style="opacity:0.639" fill="#535353" d="M 20.5,302.5 C 23.2469,302.187 25.9135,302.52 28.5,303.5C 28.3764,304.107 28.0431,304.44 27.5,304.5C 25.1667,303.833 22.8333,303.167 20.5,302.5 Z"/></g>
<g><path style="opacity:0.031" fill="#bebebe" d="M 255.5,310.5 C 255.842,311.338 256.508,311.672 257.5,311.5C 256.614,312.776 255.614,312.776 254.5,311.5C 254.624,310.893 254.957,310.56 255.5,310.5 Z"/></g>
<g><path style="opacity:0.322" fill="#898989" d="M 277.5,312.5 C 278.675,312.281 279.675,312.614 280.5,313.5C 280.376,314.107 280.043,314.44 279.5,314.5C 278.833,313.833 278.167,313.167 277.5,312.5 Z"/></g>
<g><path style="opacity:0.157" fill="#959595" d="M 133.5,319.5 C 136.833,319.5 140.167,319.5 143.5,319.5C 143.737,320.791 143.404,321.791 142.5,322.5C 139.797,320.89 136.797,319.89 133.5,319.5 Z"/></g>
<g><path style="opacity:0.804" fill="#666666" d="M 353.5,350.5 C 353.483,352.565 353.15,354.565 352.5,356.5C 351.516,354.402 351.849,352.402 353.5,350.5 Z"/></g>
<g><path style="opacity:0.431" fill="#707070" d="M 129.5,354.5 C 129.821,356.048 130.821,356.715 132.5,356.5C 132.5,359.5 132.5,362.5 132.5,365.5C 131.527,363.052 131.194,360.385 131.5,357.5C 130.5,357.5 129.5,357.5 128.5,357.5C 128.263,356.209 128.596,355.209 129.5,354.5 Z"/></g>
<g><path style="opacity:0.486" fill="#686868" d="M 398.5,415.5 C 398.011,416.995 397.345,418.329 396.5,419.5C 396.157,417.517 396.824,416.183 398.5,415.5 Z"/></g>
</svg>
