<?xml version="1.0" encoding="UTF-8"?>
<svg id="Camada_1" data-name="Camada 1" xmlns="http://www.w3.org/2000/svg" viewBox="0 0 800 800">
  <defs>
    <style>
      .cls-1 {
        fill: #fff;
      }
    </style>
  </defs>
  <path class="cls-1" d="M477,319.6v.17c-2.57-1.6-7.57-2.33-14-2.33v160.5c9,0,14.67-2,16.67-5.5,2.07-3.47,3.17-13.5,3.17-29.5v-95.53c0-11-.13-18-1.1-21-.73-3.2-2.23-5.43-4.67-6.8h-.07ZM747.2,0H54C24.73,2,2,24.8,0,53.2v692.8c2,29.13,23.73,51.4,51.83,53.9.5.1,1,.1,1.5.1h694.83c29.33-2.93,51.67-27.53,51.83-57V57C800,27.33,776.83,2.33,747.2,0ZM159.73,520.87h-63.5v-245.53h63.5v245.53ZM377.73,520.8h-55.4v-165.67l-22.33,165.63h-39.6l-23.27-162-.23,162h-55.57v-245.43h82.27c2.77,17.43,5.33,34.93,7.67,52.47l9,62.33,14.73-114.8h82.77v245.47h-.03ZM543.63,448.13c0,21.83-1.47,36.47-3.47,44-2.07,7.33-5.67,13.33-10.87,17.33-5,4.33-11.33,7.27-19,8.87-7.43,1.5-19,2.5-34,2.5l-.13-.07h-76.83v-245.43h47.53c30.47,0,48.33,1.57,59,4.27,10.83,3,19.17,7.5,24.83,14,5.5,6,9.1,13.47,10.43,21.5,1.67,7.83,2.53,23.5,2.53,46.73v86.27l-.03.03ZM708.43,463.97c0,15-1.5,25.47-3,33-2,7.47-6.5,13.47-13.5,18.93-7.53,5.53-16,8-26,8-7.33,0-16.67-2-22.67-4.53-6.33-3.13-11.93-7.9-17.17-14.23l-3.87,15.67h-57.23v-245.47l-.67-.1h60v80c5-5.83,10.5-10.33,17-13.33,6.53-2.77,15.53-4.23,23-4.23,7.53-.1,15,1.2,22,3.83,5.67,2.33,10.67,6.17,14.53,11,3,4.17,5,9,6,14,1,4.6,1.47,14.33,1.47,29v68.47h.1ZM636,373.5c-4,0-6.47,1.33-7.5,4-1,2.67-2,9.67-2,20.8v64.87c0,10.8,1,17.77,2,20.77,1.33,2.87,4.33,4.67,7.53,4.47,4,0,9.07-1.57,10-4.67,1-3.23,1.53-10.67,1.53-22.47l1-.07v-63c0-10.1-.5-16.93-2-20.1-1.47-3.33-6.5-4.67-10.5-4.67l-.07.07Z"/>
</svg>